HIERARCHY
ROOT Hips
{
	OFFSET 0.000000 100.481300 0.000000
	CHANNELS 6 Xposition Yposition Zposition Xrotation Yrotation Zrotation
	JOINT Spine
	{
		OFFSET -0.279200 12.230698 -2.892100
		CHANNELS 3 Xrotation Yrotation Zrotation
		JOINT Spine1
		{
			OFFSET -0.325700 14.269203 -3.374200
			CHANNELS 3 Xrotation Yrotation Zrotation
			JOINT Spine2
			{
				OFFSET -0.372300 16.307602 -0.352600
				CHANNELS 3 Xrotation Yrotation Zrotation
				JOINT Neck
				{
					OFFSET -0.418800 17.814194 8.416900
					CHANNELS 3 Xrotation Yrotation Zrotation
					JOINT Head
					{
						OFFSET 0.000000 7.031097 3.806800
						CHANNELS 3 Xrotation Yrotation Zrotation
						JOINT HeadTop_End
						{
							OFFSET 0.000000 24.646606 12.978600
							CHANNELS 3 Xrotation Yrotation Zrotation
							End Site
							{
								OFFSET 0.000000 27.854965 0.000000
							}
						}
					}
				}
				JOINT LeftShoulder
				{
					OFFSET 16.952999 14.495407 -7.737500
					CHANNELS 3 Xrotation Yrotation Zrotation
					JOINT LeftArm
					{
						OFFSET 9.308998 -2.777710 0.208600
						CHANNELS 3 Xrotation Yrotation Zrotation
						JOINT LeftForeArm
						{
							OFFSET 29.972298 0.000000 0.000000
							CHANNELS 3 Xrotation Yrotation Zrotation
							JOINT LeftHand
							{
								OFFSET 26.026505 0.000000 0.000000
								CHANNELS 3 Xrotation Yrotation Zrotation
								JOINT LeftHandThumb1
								{
									OFFSET 12.240501 -7.147949 9.207150
									CHANNELS 3 Xrotation Yrotation Zrotation
									JOINT LeftHandThumb2
									{
										OFFSET 4.138618 -2.389435 2.389433
										CHANNELS 3 Xrotation Yrotation Zrotation
										JOINT LeftHandThumb3
										{
											OFFSET 2.726913 -1.574387 1.574386
											CHANNELS 3 Xrotation Yrotation Zrotation
											JOINT LeftHandThumb4
											{
												OFFSET 3.941010 -2.275345 2.275342
												CHANNELS 3 Xrotation Yrotation Zrotation
												End Site
												{
													OFFSET -0.005798 5.087799 0.009903
												}
											}
										}
									}
								}
								JOINT LeftHandIndex1
								{
									OFFSET 24.424698 -1.985611 5.953459
									CHANNELS 3 Xrotation Yrotation Zrotation
									JOINT LeftHandIndex2
									{
										OFFSET 6.426697 0.000000 0.000000
										CHANNELS 3 Xrotation Yrotation Zrotation
										JOINT LeftHandIndex3
										{
											OFFSET 5.337898 0.000000 0.000000
											CHANNELS 3 Xrotation Yrotation Zrotation
											JOINT LeftHandIndex4
											{
												OFFSET 4.409401 0.000000 0.000000
												CHANNELS 3 Xrotation Yrotation Zrotation
												End Site
												{
													OFFSET 0.000000 4.409363 0.014373
												}
											}
										}
									}
								}
								JOINT LeftHandMiddle1
								{
									OFFSET 23.810104 0.000000 0.000000
									CHANNELS 3 Xrotation Yrotation Zrotation
									JOINT LeftHandMiddle2
									{
										OFFSET 7.176498 0.000000 0.000000
										CHANNELS 3 Xrotation Yrotation Zrotation
										JOINT LeftHandMiddle3
										{
											OFFSET 6.774902 0.000000 0.000000
											CHANNELS 3 Xrotation Yrotation Zrotation
											JOINT LeftHandMiddle4
											{
												OFFSET 5.403328 0.000000 0.000000
												CHANNELS 3 Xrotation Yrotation Zrotation
												End Site
												{
													OFFSET -0.027702 5.403244 0.017414
												}
											}
										}
									}
								}
								JOINT LeftHandRing1
								{
									OFFSET 22.908401 -0.839279 -6.020567
									CHANNELS 3 Xrotation Yrotation Zrotation
									JOINT LeftHandRing2
									{
										OFFSET 6.337502 0.000000 0.000000
										CHANNELS 3 Xrotation Yrotation Zrotation
										JOINT LeftHandRing3
										{
											OFFSET 5.779297 0.000000 0.000000
											CHANNELS 3 Xrotation Yrotation Zrotation
											JOINT LeftHandRing4
											{
												OFFSET 4.965698 0.000000 0.000000
												CHANNELS 3 Xrotation Yrotation Zrotation
												End Site
												{
													OFFSET 0.000000 4.965668 0.016186
												}
											}
										}
									}
								}
								JOINT LeftHandPinky1
								{
									OFFSET 20.037003 -1.530319 -10.950146
									CHANNELS 3 Xrotation Yrotation Zrotation
									JOINT LeftHandPinky2
									{
										OFFSET 5.254700 0.000000 0.000000
										CHANNELS 3 Xrotation Yrotation Zrotation
										JOINT LeftHandPinky3
										{
											OFFSET 4.810204 0.000000 0.000000
											CHANNELS 3 Xrotation Yrotation Zrotation
											JOINT LeftHandPinky4
											{
												OFFSET 3.647202 0.000000 0.000000
												CHANNELS 3 Xrotation Yrotation Zrotation
												End Site
												{
													OFFSET 0.000000 3.647186 0.011889
												}
											}
										}
									}
								}
							}
						}
					}
				}
				JOINT RightShoulder
				{
					OFFSET -15.141001 14.495407 -7.737500
					CHANNELS 3 Xrotation Yrotation Zrotation
					JOINT RightArm
					{
						OFFSET -9.308998 -2.777710 0.208500
						CHANNELS 3 Xrotation Yrotation Zrotation
						JOINT RightForeArm
						{
							OFFSET -29.972300 0.000000 0.000000
							CHANNELS 3 Xrotation Yrotation Zrotation
							JOINT RightHand
							{
								OFFSET -26.026505 0.000000 0.000000
								CHANNELS 3 Xrotation Yrotation Zrotation
								JOINT RightHandThumb1
								{
									OFFSET -12.240601 -7.148026 9.207092
									CHANNELS 3 Xrotation Yrotation Zrotation
									JOINT RightHandThumb2
									{
										OFFSET -4.138618 -2.389435 2.389433
										CHANNELS 3 Xrotation Yrotation Zrotation
										JOINT RightHandThumb3
										{
											OFFSET -2.726974 -1.574417 1.574421
											CHANNELS 3 Xrotation Yrotation Zrotation
											JOINT RightHandThumb4
											{
												OFFSET -3.941010 -2.275345 2.275343
												CHANNELS 3 Xrotation Yrotation Zrotation
												End Site
												{
													OFFSET 0.005814 5.087799 0.009927
												}
											}
										}
									}
								}
								JOINT RightHandIndex1
								{
									OFFSET -24.424698 -1.985657 5.953444
									CHANNELS 3 Xrotation Yrotation Zrotation
									JOINT RightHandIndex2
									{
										OFFSET -6.426697 0.000000 0.000000
										CHANNELS 3 Xrotation Yrotation Zrotation
										JOINT RightHandIndex3
										{
											OFFSET -5.337898 0.000000 0.000000
											CHANNELS 3 Xrotation Yrotation Zrotation
											JOINT RightHandIndex4
											{
												OFFSET -4.409401 0.000000 0.000000
												CHANNELS 3 Xrotation Yrotation Zrotation
												End Site
												{
													OFFSET 0.000000 4.409363 0.014408
												}
											}
										}
									}
								}
								JOINT RightHandMiddle1
								{
									OFFSET -23.810097 0.000000 0.000000
									CHANNELS 3 Xrotation Yrotation Zrotation
									JOINT RightHandMiddle2
									{
										OFFSET -7.176498 0.000000 0.000000
										CHANNELS 3 Xrotation Yrotation Zrotation
										JOINT RightHandMiddle3
										{
											OFFSET -6.774902 0.000000 0.000000
											CHANNELS 3 Xrotation Yrotation Zrotation
											JOINT RightHandMiddle4
											{
												OFFSET -5.403328 0.000000 0.000000
												CHANNELS 3 Xrotation Yrotation Zrotation
												End Site
												{
													OFFSET 0.027702 5.403244 0.017457
												}
											}
										}
									}
								}
								JOINT RightHandRing1
								{
									OFFSET -22.908302 -0.839325 -6.020576
									CHANNELS 3 Xrotation Yrotation Zrotation
									JOINT RightHandRing2
									{
										OFFSET -6.337502 0.000000 0.000000
										CHANNELS 3 Xrotation Yrotation Zrotation
										JOINT RightHandRing3
										{
											OFFSET -5.779297 0.000000 0.000000
											CHANNELS 3 Xrotation Yrotation Zrotation
											JOINT RightHandRing4
											{
												OFFSET -4.965698 0.000000 0.000000
												CHANNELS 3 Xrotation Yrotation Zrotation
												End Site
												{
													OFFSET 0.000000 4.965668 0.016226
												}
											}
										}
									}
								}
								JOINT RightHandPinky1
								{
									OFFSET -20.037003 -1.530334 -10.950259
									CHANNELS 3 Xrotation Yrotation Zrotation
									JOINT RightHandPinky2
									{
										OFFSET -5.254700 0.000000 0.000000
										CHANNELS 3 Xrotation Yrotation Zrotation
										JOINT RightHandPinky3
										{
											OFFSET -4.810204 0.000000 0.000000
											CHANNELS 3 Xrotation Yrotation Zrotation
											JOINT RightHandPinky4
											{
												OFFSET -3.647202 0.000000 0.000000
												CHANNELS 3 Xrotation Yrotation Zrotation
												End Site
												{
													OFFSET 0.000000 3.647186 0.011917
												}
											}
										}
									}
								}
							}
						}
					}
				}
			}
		}
	}
	JOINT LeftUpLeg
	{
		OFFSET 15.427100 -6.655098 0.678600
		CHANNELS 3 Xrotation Yrotation Zrotation
		JOINT LeftLeg
		{
			OFFSET 4.081073 -39.591068 13.024000
			CHANNELS 3 Xrotation Yrotation Zrotation
			JOINT LeftFoot
			{
				OFFSET -4.081074 -37.707932 -15.979700
				CHANNELS 3 Xrotation Yrotation Zrotation
				JOINT LeftToeBase
				{
					OFFSET 5.346399 -15.068900 20.645000
					CHANNELS 3 Xrotation Yrotation Zrotation
					JOINT LeftToe_End
					{
						OFFSET 2.754700 0.931300 11.300900
						CHANNELS 3 Xrotation Yrotation Zrotation
						End Site
						{
							OFFSET 0.000000 11.669021 0.000000
						}
					}
				}
			}
		}
	}
	JOINT RightUpLeg
	{
		OFFSET -15.569500 -6.655098 0.678600
		CHANNELS 3 Xrotation Yrotation Zrotation
		JOINT RightLeg
		{
			OFFSET -4.081825 -39.591045 13.023800
			CHANNELS 3 Xrotation Yrotation Zrotation
			JOINT RightFoot
			{
				OFFSET 4.081824 -37.707954 -15.979600
				CHANNELS 3 Xrotation Yrotation Zrotation
				JOINT RightToeBase
				{
					OFFSET -5.346400 -15.068900 20.645000
					CHANNELS 3 Xrotation Yrotation Zrotation
					JOINT RightToe_End
					{
						OFFSET -2.754700 0.931300 11.300900
						CHANNELS 3 Xrotation Yrotation Zrotation
						End Site
						{
							OFFSET 0.000000 11.669021 0.000000
						}
					}
				}
			}
		}
	}
}
MOTION
Frames: 4
Frame Time: 0.033333
0.289074 78.877937 -0.157126 3.037452 -58.355039 6.232861 11.190421 0.276961 -2.458413 8.434585 0.027694 -5.592319 8.457043 0.027896 -5.591869 -21.555985 25.063371 12.062487 -0.293860 25.465694 -3.208687 -0.000000 0.000000 0.000000 -6.221635 -11.503779 -4.023764 -23.062245 9.568423 -36.639658 0.046110 -43.168872 -0.011161 22.743799 -5.686075 15.979316 -1.064261 -7.954915 8.490034 2.373401 19.986091 -2.038300 0.808205 1.237769 2.631770 0.000000 -0.000000 0.000002 13.340854 -1.006625 10.682277 -0.167579 0.303350 -31.105638 -0.143362 0.303615 -32.256231 -0.000001 0.000000 -0.000003 8.495424 -0.329584 -0.915330 0.231501 0.661227 -29.901872 0.444137 0.213480 -44.357028 -0.000001 -0.000002 -0.000001 6.111714 3.150940 -16.210954 0.047078 0.322433 -30.125485 0.408794 0.818935 -42.140655 0.000001 -0.000000 0.000001 -5.636058 7.709879 -13.878640 0.224366 0.276528 -46.588331 0.261226 0.249368 -46.286864 0.000001 0.000001 -0.000000 -5.488226 10.658267 2.466471 -41.473906 -26.755576 30.079023 24.955633 111.862837 -23.308668 -8.702505 12.423098 -9.801905 0.264999 10.061105 -10.888487 1.383792 -17.412859 3.016279 3.342358 -13.253719 -8.262749 -0.000002 0.000002 -0.000001 19.443631 11.174470 -13.340201 -0.118656 -0.322717 18.035594 -0.089863 -0.286654 23.256570 0.000000 -0.000000 0.000000 4.320490 2.436961 -4.811738 0.349092 -0.461250 26.890349 0.467499 0.154051 39.044834 -0.000000 0.000000 -0.000001 -7.005607 -10.695133 5.719833 0.111823 -0.089189 26.155887 0.451315 -0.473585 33.265060 0.000002 -0.000000 -0.000001 -19.433546 -20.238190 5.987872 0.223806 -0.085783 36.844574 0.260767 -0.047500 36.471684 -0.000002 -0.000001 0.000000 -34.680494 8.733535 27.677101 40.314232 -8.737558 -10.519088 -7.470992 -1.705574 -10.811831 -0.367962 1.237918 0.745926 -0.000000 -0.000001 -0.000000 -31.022945 -7.193279 -29.202371 46.886493 5.280923 -6.185211 -19.296522 0.939411 23.039580 -0.365042 -0.996821 -0.741320 -0.000000 -0.000001 -0.000000 
0.029435 78.776733 -0.394707 3.202799 -58.533703 6.100172 11.084696 -0.110428 -3.754794 7.355994 -0.293603 -4.983073 7.385756 -0.289664 -4.635458 -10.308566 23.831980 11.057427 1.962734 24.175123 -4.461181 0.000000 0.000000 0.000001 -6.897517 -11.390164 -6.956932 -21.535189 10.035009 -32.204854 14.551482 -42.575072 7.964570 13.735301 -8.244747 15.097968 -2.345539 -6.331553 11.193959 3.741295 19.895632 -4.090255 1.877334 1.239385 0.843454 0.000001 -0.000000 0.000002 12.870093 -0.238746 6.426459 -0.165283 0.304699 -33.169185 -0.135784 0.301629 -34.319867 0.000001 -0.000000 -0.000000 8.520655 -0.196746 -7.081172 0.243211 0.667986 -31.965483 0.456863 0.217407 -46.420575 0.000002 -0.000001 -0.000002 6.122795 3.194910 -17.995436 0.048192 0.336197 -32.188974 0.429640 0.817444 -44.204434 0.000001 -0.000000 -0.000001 -5.634295 7.733337 -15.808353 0.232544 0.283097 -48.651878 0.271060 0.254060 -48.350380 0.000000 0.000001 0.000001 -5.414995 9.292896 1.519556 -37.159842 -26.426893 30.788205 27.128724 111.878061 -25.043889 -14.613523 12.646316 -15.991985 -0.355233 8.845531 -12.452783 2.709846 -17.304974 5.364578 4.576583 -13.368770 -5.985976 0.000001 0.000001 0.000000 19.448120 11.177647 -10.290594 -0.116458 -0.324696 20.365015 -0.081099 -0.285681 25.586035 -0.000002 -0.000001 0.000001 4.283328 2.414423 -2.481158 0.361860 -0.469626 29.219785 0.481425 0.148338 41.374175 -0.000003 -0.000000 0.000000 -7.024064 -10.714952 8.045699 0.112052 -0.104784 28.485239 0.474825 -0.475470 35.594561 -0.000002 0.000000 0.000000 -19.440547 -20.246839 8.314840 0.231609 -0.094509 39.173969 0.270779 -0.054612 38.801058 0.000001 0.000000 -0.000001 -34.619217 8.149575 28.071966 40.561649 -8.402272 -10.207203 -7.690708 -1.579888 -11.523346 -0.377183 1.237895 0.725033 -0.000000 0.000000 -0.000000 -30.573952 -6.480459 -28.304989 47.183507 4.385008 -6.242570 -19.692468 0.748589 23.283717 -0.363612 -0.996831 -0.744591 0.000000 -0.000001 -0.000000 
-1.305364 79.349312 0.154313 -3.069010 -58.868021 -0.675088 10.531966 -0.642755 -4.164850 4.967096 -1.011782 -4.180147 5.012651 -0.862236 -3.655384 11.126407 21.052680 8.900582 6.880412 21.284615 -7.536073 0.000001 0.000001 -0.000001 -8.187218 -10.966226 -12.534060 -18.721193 12.913270 -26.546389 28.180322 -40.569801 15.058537 5.336112 -10.912303 13.747785 -3.641061 -4.940051 13.939626 5.056097 19.774878 -6.041654 2.897982 1.209575 -0.863305 0.000000 -0.000000 -0.000001 12.388996 0.552108 2.462061 -0.163041 0.305780 -35.139213 -0.128616 0.299517 -36.289936 -0.000001 -0.000000 0.000000 8.552139 -0.061276 -13.080757 0.254597 0.674161 -33.935593 0.469179 0.220709 -48.390661 -0.000000 -0.000002 0.000000 6.133559 3.237295 -19.690144 0.049743 0.349320 -34.158975 0.449466 0.815269 -46.174661 0.000001 0.000001 -0.000001 -5.632401 7.757471 -17.645980 0.240506 0.288912 -50.621971 0.280567 0.258273 -50.320456 -0.000002 0.000001 0.000002 -5.406335 6.538044 -0.878462 -25.841321 -24.446391 34.597217 38.391858 109.118303 -35.646023 -19.694569 17.011206 -17.360307 -0.939212 7.625045 -14.005634 4.143974 -17.129018 7.912261 5.923242 -13.439610 -3.507109 -0.000003 0.000000 -0.000000 19.452847 11.181431 -6.974582 -0.113982 -0.326768 22.897852 -0.071545 -0.284332 28.118893 -0.000000 -0.000003 -0.000002 4.244029 2.388280 0.052906 0.376206 -0.478174 31.752706 0.496846 0.142797 43.906915 -0.000000 0.000000 0.000000 -7.043073 -10.737298 10.574839 0.113040 -0.121760 31.017979 0.500454 -0.476447 38.127468 -0.000004 -0.000000 -0.000000 -19.447738 -20.256495 10.845162 0.240526 -0.103616 41.706805 0.281985 -0.061893 41.333911 0.000003 -0.000001 -0.000001 -29.770151 7.705522 29.104638 40.510030 -8.238204 -9.138390 -9.359611 -1.275366 -12.748653 -0.405617 1.237510 0.727124 0.000000 0.000000 -0.000000 -25.483040 -9.284810 -26.950651 45.498052 5.525632 -6.152424 -20.454171 1.063697 22.319404 -0.410733 -0.996578 -0.734737 -0.000000 -0.000001 -0.000000 
-3.006378 80.412918 1.314500 -17.154257 -56.793860 -13.481553 9.328021 -0.866167 -2.058393 2.330348 -1.541343 -2.085334 2.376576 -1.397459 -1.739554 27.915693 17.871391 6.602557 12.210618 18.006829 -11.601630 -0.000001 0.000000 -0.000001 -9.216493 -10.292714 -16.851923 -15.685321 9.376277 -27.754199 33.954400 -24.409196 11.012048 -3.837374 -12.479145 10.659536 -4.467673 -3.279927 16.274473 6.288463 19.629125 -7.867558 3.851935 1.154193 -2.459591 -0.000001 -0.000000 0.000000 11.929001 1.312724 -1.620135 -0.160899 0.306817 -36.982718 -0.121964 0.297265 -38.133448 -0.000000 -0.000001 -0.000000 8.590985 0.069000 -18.211586 0.265418 0.679578 -35.779102 0.480831 0.223428 -50.234149 -0.000002 -0.000001 -0.000003 6.143994 3.278113 -21.313991 0.051541 0.361568 -36.002450 0.467974 0.812641 -48.018286 -0.000001 0.000000 0.000001 -5.630484 7.781601 -19.383083 0.248127 0.294207 -52.465473 0.289580 0.261870 -52.163954 0.000001 -0.000000 0.000001 -5.862739 4.084526 -2.635808 -18.350485 -17.899557 33.912733 59.789796 107.339442 -56.364295 -19.560552 14.544239 -15.512847 -1.490439 6.494915 -15.509128 5.474892 -16.909621 10.287008 7.184372 -13.454490 -1.188036 0.000002 0.000001 -0.000001 19.457051 11.185160 -3.874088 -0.111527 -0.328643 25.266051 -0.062653 -0.282690 30.487079 -0.000000 -0.000001 -0.000000 4.208339 2.362244 2.422186 0.389859 -0.485511 34.120951 0.511493 0.138153 46.275047 -0.000001 -0.000000 -0.000000 -7.060039 -10.758933 12.939672 0.114603 -0.137533 33.386176 0.524387 -0.476266 40.495741 -0.000001 0.000000 -0.000000 -19.454013 -20.265812 13.211129 0.249253 -0.111803 44.074985 0.292730 -0.068172 43.702101 0.000002 -0.000000 -0.000003 -19.987128 8.904425 28.951498 39.184478 -9.321991 -7.733069 -11.012215 -1.220415 -12.990363 -0.393841 1.237553 0.734865 0.000000 0.000001 -0.000000 -14.797666 -14.690181 -27.395225 41.994202 6.724369 -5.953878 -21.476944 2.793764 22.082236 -0.414177 -0.996638 -0.765841 -0.000000 -0.000001 -0.000000 
